<!--?xml version="1.0" standalone="no"?-->
              <svg id="sw-js-blob-svg" viewBox="0 0 100 100" xmlns="http://www.w3.org/2000/svg" version="1.1">
                    <defs> 
                        <linearGradient id="sw-gradient" x1="0" x2="1" y1="1" y2="0">
                            <stop id="stop1" stop-color="rgba(225, 229, 235, 1)" offset="0%"></stop>
                            <stop id="stop2" stop-color="rgba(225, 229, 235, 1)" offset="100%"></stop>
                        </linearGradient>
                    </defs>
                <path fill="url(#sw-gradient)" d="M18.1,-25.5C25.6,-23.4,35.2,-21.9,40.2,-16.7C45.1,-11.5,45.4,-2.4,40.1,2.9C34.8,8.1,23.9,9.7,18.1,14.8C12.3,19.9,11.6,28.5,7.6,32.8C3.7,37.1,-3.6,37,-9.2,34.1C-14.9,31.2,-19,25.6,-25.4,20.7C-31.8,15.7,-40.5,11.4,-39.9,6.6C-39.3,1.8,-29.4,-3.6,-23.9,-8.9C-18.4,-14.3,-17.3,-19.8,-14.1,-23.8C-10.8,-27.8,-5.4,-30.3,0,-30.3C5.3,-30.2,10.6,-27.5,18.1,-25.5Z" width="100%" height="100%" transform="translate(50 50)" style="transition: all 0.3s ease 0s;" stroke-width="0"></path>
              </svg>