<!--?xml version="1.0" standalone="no"?-->
              <svg id="sw-js-blob-svg" viewBox="0 0 100 100" xmlns="http://www.w3.org/2000/svg" version="1.1">
                    <defs> 
                        <linearGradient id="sw-gradient" x1="0" x2="1" y1="1" y2="0">
                            <stop id="stop1" stop-color="rgba(229, 148, 98, 1)" offset="0%"></stop>
                            <stop id="stop2" stop-color="rgba(229, 148, 98, 1)" offset="100%"></stop>
                        </linearGradient>
                    </defs>
                <path fill="url(#sw-gradient)" d="M11.2,-17.4C16.2,-14.3,23.1,-14,27.6,-10.7C32,-7.4,34.1,-1.1,32.6,4.2C31.1,9.5,26,13.8,20.8,15.9C15.6,17.9,10.4,17.8,5.1,21C-0.2,24.3,-5.6,30.8,-11.3,32C-16.9,33.3,-22.9,29.1,-27.4,23.8C-32,18.5,-35.1,12,-32.6,6.8C-30.1,1.6,-21.9,-2.3,-18.8,-8.4C-15.8,-14.5,-17.9,-22.8,-15.6,-27.2C-13.3,-31.6,-6.7,-32.1,-1.8,-29.4C3.1,-26.6,6.2,-20.6,11.2,-17.4Z" width="100%" height="100%" transform="translate(50 50)" style="transition: all 0.3s ease 0s;" stroke-width="0"></path>
              </svg>