<!--?xml version="1.0" standalone="no"?-->
              <svg id="sw-js-blob-svg" viewBox="0 0 100 100" xmlns="http://www.w3.org/2000/svg" version="1.1">
                    <defs> 
                        <linearGradient id="sw-gradient" x1="0" x2="1" y1="1" y2="0">
                            <stop id="stop1" stop-color="rgba(213, 202, 228, 1)" offset="0%"></stop>
                            <stop id="stop2" stop-color="rgba(213, 202, 228, 1)" offset="100%"></stop>
                        </linearGradient>
                    </defs>
                <path fill="url(#sw-gradient)" d="M16.5,-25.5C23.2,-21.4,31.7,-19.9,31.6,-15.7C31.5,-11.5,23,-4.7,18.8,0.5C14.7,5.8,14.9,9.5,13.9,13.8C12.9,18.1,10.5,23,7.4,23C4.2,23,0.2,18,-5.5,17C-11.1,16.1,-18.4,19.2,-23.9,17.9C-29.4,16.6,-33.1,11,-36.1,3.9C-39.1,-3.1,-41.5,-11.6,-37.1,-15.2C-32.7,-18.9,-21.7,-17.7,-14.4,-21.5C-7.1,-25.3,-3.5,-34,0.7,-35.1C4.9,-36.1,9.8,-29.6,16.5,-25.5Z" width="100%" height="100%" transform="translate(50 50)" style="transition: all 0.3s ease 0s;" stroke-width="0"></path>
              </svg>