<!--?xml version="1.0" standalone="no"?-->
              <svg id="sw-js-blob-svg" viewBox="0 0 100 100" xmlns="http://www.w3.org/2000/svg" version="1.1">
                    <defs> 
                        <linearGradient id="sw-gradient" x1="0" x2="1" y1="1" y2="0">
                            <stop id="stop1" stop-color="rgba(229, 148, 98, 1)" offset="0%" style="--darkreader-inline-stopcolor: #a93a06;" data-darkreader-inline-stopcolor=""></stop>
                            <stop id="stop2" stop-color="rgba(229, 148, 98, 1)" offset="100%" style="--darkreader-inline-stopcolor: #2f3234;" data-darkreader-inline-stopcolor=""></stop>
                        </linearGradient>
                    </defs>
                <path fill="url(#sw-gradient)" d="M18.9,-34.1C23.2,-30.1,24.7,-22.6,26.1,-16.4C27.6,-10.1,28.9,-5.1,28.8,-0.1C28.7,4.9,27.2,9.9,25.1,15C23.1,20.2,20.5,25.6,16.2,31.1C11.9,36.7,6,42.4,-0.1,42.6C-6.1,42.7,-12.2,37.3,-19,33.1C-25.8,29,-33.1,26.2,-36.9,20.9C-40.7,15.6,-40.9,7.8,-41,0C-41.1,-7.9,-41.1,-15.8,-36.7,-20.1C-32.3,-24.4,-23.6,-25,-16.7,-27.5C-9.9,-30,-4.9,-34.4,1.2,-36.4C7.2,-38.4,14.5,-38,18.9,-34.1Z" width="100%" height="100%" transform="translate(50 50)" style="transition: all 0.3s ease 0s;" stroke-width="0" stroke="url(#sw-gradient)"></path>
              </svg>