<!--?xml version="1.0" standalone="no"?-->
              <svg id="sw-js-blob-svg" viewBox="0 0 100 100" xmlns="http://www.w3.org/2000/svg" version="1.1">
                    <defs> 
                        <linearGradient id="sw-gradient" x1="0" x2="1" y1="1" y2="0">
                            <stop id="stop1" stop-color="rgba(229, 148, 98, 1)" offset="0%" style="--darkreader-inline-stopcolor: #a93a06;" data-darkreader-inline-stopcolor=""></stop>
                            <stop id="stop2" stop-color="rgba(229, 148, 98, 1)" offset="100%" style="--darkreader-inline-stopcolor: #2f3234;" data-darkreader-inline-stopcolor=""></stop>
                        </linearGradient>
                    </defs>
                <path fill="url(#sw-gradient)" d="M14.1,-12.6C21.7,-10.5,33.6,-9.3,38.9,-3.3C44.2,2.7,43.1,13.5,36.1,16.4C29.1,19.4,16.3,14.6,7.6,15.3C-1.1,16.1,-5.8,22.4,-8.6,22C-11.4,21.7,-12.4,14.7,-16.2,9C-20,3.2,-26.6,-1.3,-27,-5.8C-27.4,-10.2,-21.7,-14.6,-16.2,-17.1C-10.6,-19.6,-5.3,-20.1,-1,-18.9C3.3,-17.7,6.6,-14.7,14.1,-12.6Z" width="100%" height="100%" transform="translate(50 50)" style="transition: all 0.3s ease 0s;" stroke-width="0" stroke="url(#sw-gradient)"></path>
              </svg>