<!--?xml version="1.0" standalone="no"?-->
              <svg id="sw-js-blob-svg" viewBox="0 0 100 100" xmlns="http://www.w3.org/2000/svg" version="1.1">
                    <defs> 
                        <linearGradient id="sw-gradient" x1="0" x2="1" y1="1" y2="0">
                            <stop id="stop1" stop-color="rgba(213, 202, 228, 1)" offset="0%" style="--darkreader-inline-stopcolor: #a93a06;" data-darkreader-inline-stopcolor=""></stop>
                            <stop id="stop2" stop-color="rgba(213, 202, 228, 1)" offset="100%" style="--darkreader-inline-stopcolor: #2f3234;" data-darkreader-inline-stopcolor=""></stop>
                        </linearGradient>
                    </defs>
                <path fill="url(#sw-gradient)" d="M16.4,-29C22.3,-25,28.8,-22.7,31.2,-18.2C33.6,-13.6,31.8,-6.8,31.8,0C31.8,6.8,33.6,13.6,31.6,18.8C29.6,24,23.8,27.6,17.9,31.6C12,35.6,6,39.9,0.3,39.3C-5.3,38.7,-10.6,33.2,-16.6,29.2C-22.5,25.3,-29.1,22.9,-33.4,18.3C-37.7,13.7,-39.6,6.9,-39.3,0.2C-38.9,-6.5,-36.2,-12.9,-33.2,-19.7C-30.2,-26.5,-26.9,-33.7,-21.3,-37.8C-15.7,-42,-7.9,-43.1,-1.3,-40.9C5.3,-38.6,10.5,-33,16.4,-29Z" width="100%" height="100%" transform="translate(50 50)" style="transition: all 0.3s ease 0s;" stroke-width="0" stroke="url(#sw-gradient)"></path>
              </svg>